M48
;GenerationSoftware,Autodesk,EAGLE,9.6.2*%
;CreationDate,2021-07-29T20:52:59Z*%
FMAT,2
ICI,OFF
METRIC,TZ,000.000
T8C0.350
T7C0.510
T6C0.600
T5C1.016
T4C1.118
T3C2.400
T2C3.150
T1C14.500
%
G90
M71
T1
X45583Y67000
X45583Y24000
T2
X14750Y76245
X14750Y14750
X76245Y14750
X76245Y76245
T3
X21670Y50400
X30330Y35400
X38990Y50400
T4
X10160Y50635
X54292Y80010
X31585Y80010
X10160Y73343
T5
X79375Y44132
X79375Y51752
X79375Y49212
X79375Y46672
X79375Y41593
X79375Y39053
T6
X27030Y50880
X33630Y50880
X27230Y39800
X36730Y45520
X23930Y45520
X33430Y39800
T7
X63500Y48895
X76518Y45402
X68580Y26035
X59690Y49212
X59690Y42545
X59690Y35878
T8
X66040Y55880
X78740Y63500
X81280Y74930
X69533Y79058
X68263Y33020
X82233Y24765
X63500Y15240
X74930Y8890
X81280Y16510
X41910Y8255
X35560Y27940
X29210Y15240
X15240Y8890
X8890Y16510
X15240Y29210
X20320Y38735
X11430Y44450
X27940Y55880
X65723Y43180
X50165Y47582
X51752Y48217
X48577Y51478
X54292Y47457
X50165Y40914
X51752Y41549
X48577Y44811
X54292Y40789
X50165Y34247
X51752Y34882
X48577Y38143
X54292Y34122
X71394Y50800
X57150Y34290
X64452Y47625
X35878Y40005
X34608Y37465
X37148Y37783
X38735Y40005
X39688Y37783
X41275Y40005
X41910Y37783
X42863Y40005
X45085Y40323
X38100Y44450
X39688Y44450
X41275Y44450
X42863Y44450
X46037Y45085
X38100Y46672
X40005Y46672
X41910Y46672
X43815Y46672
X46355Y47307
X31115Y40005
X29210Y40323
X27940Y38100
X31432Y37783
X28575Y51117
X27622Y52705
X29210Y53657
X31432Y51752
X30797Y53657
X81280Y54610
X34290Y53657
X35243Y51752
X36830Y51752
X36195Y53657
X38100Y53657
X40005Y53657
X41593Y53657
X43815Y53657
X45720Y53657
X41593Y51752
X43180Y51752
X45402Y51752
X49212Y53657
X51752Y53657
X53975Y53657
X55562Y53340
X55562Y46672
X51752Y45402
X51435Y38735
X55562Y40005
X53022Y29527
X54927Y24447
X60642Y31115
X41275Y32067
X36830Y20638
X43815Y14605
X53022Y19368
X29210Y8255
X8573Y32385
X14605Y59690
X22225Y56515
X15240Y50800
X26987Y63500
X43180Y58102
X20003Y81280
X14287Y82233
X8890Y76518
X17780Y71755
X20320Y75565
X9843Y67628
X16192Y65723
X21907Y66993
X30797Y71120
X34608Y80645
X40958Y82550
X50165Y52078
X52387Y77470
X54927Y67310
X52387Y60325
X61912Y81280
X64770Y68263
X24765Y20003
X23177Y28892
X70168Y17463
X74656Y50800
X70803Y43815
X23495Y79693
X24447Y78105
X23495Y76518
X22542Y78105
X82550Y45402
X47307Y51435
X50165Y45411
X47307Y44767
X47307Y39053
X75565Y41910
X65087Y38418
X62865Y38418
X32702Y53657
X47307Y53657
X55562Y57811
X58102Y53666
X57467Y57866
X60642Y53657
X73835Y44450
X65865Y44450
X66993Y39644
X65723Y39644
X65723Y51161
X66993Y51161
X64135Y39644
X72708Y39644
X73978Y39688
X71120Y54610
X70485Y41275
X71120Y37465
X81280Y37465
X41593Y75883
X34925Y67628
X54610Y73660
X36830Y60960
X50165Y82550
M30