M48
;GenerationSoftware,Autodesk,EAGLE,9.6.2*%
;CreationDate,2021-07-27T01:41:33Z*%
FMAT,2
ICI,OFF
METRIC,TZ,000.000
T7C0.350
T6C0.510
T5C0.550
T4C1.016
T3C2.500
T2C3.400
T1C4.000
%
G90
M71
T1
X84500Y84500
X6500Y84500
X6500Y6500
X84500Y6500
T2
X45625Y45895
X75625Y15895
X45625Y15895
X75625Y45895
T3
X62865Y8255
X27940Y8255
T4
X59372Y9525
X20955Y9525
X46672Y9525
X20955Y6985
X20955Y4445
X84455Y69533
X84455Y66993
X55880Y77470
X53340Y77470
X4128Y19050
X4128Y21590
X4128Y24130
X50800Y77470
X84455Y72073
X21273Y47942
X21273Y50482
X21273Y60642
X21273Y63182
X21273Y73343
X21273Y75883
X31432Y6985
X31432Y9525
X33973Y6985
X33973Y9525
X36513Y6985
X36513Y9525
X39053Y6985
X39053Y9525
X41593Y6985
X41593Y9525
X44132Y6985
X44132Y9525
X46672Y6985
X49212Y6985
X49212Y9525
X51752Y6985
X51752Y9525
X54292Y6985
X54292Y9525
X56832Y6985
X56832Y9525
X59372Y6985
T5
X81915Y78105
X81915Y75565
X81915Y76815
T6
X5715Y51752
X27940Y35560
X27940Y32385
X13970Y53022
X13970Y47942
X21273Y52705
X33655Y49847
X33655Y47942
X5715Y64452
X26987Y33973
X20955Y23177
X13970Y65723
X13970Y60642
X21273Y65405
X30480Y74930
X30480Y66040
X5715Y77153
X8255Y43180
X12382Y36513
X13970Y78423
X13970Y73343
X21273Y78105
X26987Y27622
X27940Y29210
X26987Y30797
X15875Y28892
X36830Y77153
X40005Y77153
X38418Y76200
X49212Y70168
X35878Y61595
X44767Y76200
X43180Y77153
X41593Y76200
X43498Y65087
X68898Y76200
X64135Y77153
X67310Y77153
X65723Y76200
X76518Y70168
X62547Y53975
X63182Y61595
X72073Y76200
X70485Y77153
X35243Y53975
X70803Y65087
X31432Y47942
X31432Y46037
T7
X52387Y30523
X51117Y17463
X74613Y33698
X68898Y30523
X67628Y30523
X77153Y30523
X77153Y20912
X73343Y21496
X73343Y29702
X75883Y20912
X75883Y30523
X72073Y16510
X11430Y69326
X11430Y56626
X11430Y82026
X62865Y33698
X33973Y15557
X10795Y1905
X12700Y1905
X14605Y1905
X22225Y1905
X24130Y1905
X26035Y1905
X27940Y1905
X29845Y1905
X29845Y3810
X1905Y10160
X1905Y12065
X1905Y13970
X1905Y15875
X1905Y36195
X1905Y38100
X5715Y40640
X5715Y42545
X5715Y53340
X5715Y55245
X5715Y57150
X5715Y66040
X5715Y67945
X5715Y69850
X5715Y78740
X1905Y85725
X2540Y88900
X4445Y88900
X6350Y88900
X8255Y88900
X10160Y88900
X12065Y88900
X1905Y87630
X13970Y88900
X15875Y88900
X17780Y88900
X19685Y88900
X21590Y88900
X23495Y88900
X25400Y88900
X27305Y88900
X29210Y88900
X31115Y88900
X33020Y88900
X34925Y88900
X36830Y88900
X38735Y88900
X40640Y88900
X42545Y88900
X44450Y88900
X46355Y88900
X48260Y88900
X50165Y88900
X52070Y88900
X53975Y88900
X55880Y88900
X57785Y88900
X59690Y88900
X61595Y88900
X63500Y88900
X65405Y88900
X67310Y88900
X69215Y88900
X71120Y88900
X73025Y88900
X74930Y88900
X76835Y88900
X78740Y88900
X80645Y88900
X82550Y88900
X84455Y88900
X86360Y88900
X88265Y88900
X88900Y87630
X88900Y85725
X88900Y83820
X88900Y81915
X85090Y79375
X85090Y77470
X85090Y75565
X85090Y64770
X85090Y62865
X85090Y60960
X85090Y59055
X85090Y57150
X85090Y55245
X85090Y53340
X85090Y51435
X85090Y49530
X85090Y47625
X85090Y45720
X85090Y43815
X85090Y41910
X86360Y40005
X88900Y40005
X88900Y38100
X88900Y36195
X88900Y34290
X88900Y32385
X88900Y30480
X88900Y28575
X88900Y26670
X88900Y24765
X88900Y22860
X88900Y20955
X88900Y19050
X88900Y17145
X88900Y15240
X88900Y13335
X88900Y11430
X88900Y9525
X88900Y7620
X88900Y5715
X88900Y3810
X88900Y1905
X86995Y1905
X85090Y1905
X83185Y1905
X81280Y1905
X79375Y1905
X77470Y1905
X75565Y1905
X73660Y1905
X71755Y1905
X69850Y1905
X67945Y1905
X66040Y1905
X64135Y1905
X62230Y1905
X61595Y3810
X59690Y5080
X57785Y5080
X55880Y5080
X53975Y5080
X52070Y5080
X50165Y5080
X48260Y5080
X46355Y5080
X44450Y5080
X8890Y1905
X6985Y1905
X5080Y1905
X3175Y1905
X1905Y2540
X1905Y4445
X1905Y8255
X1905Y6350
X1905Y40005
X3810Y40005
X5715Y44450
X1905Y83820
X1905Y81915
X1905Y17780
X1905Y19685
X1905Y21590
X1905Y23495
X1905Y25400
X42545Y5080
X40640Y5080
X38735Y5080
X59664Y59372
X34925Y5080
X33020Y5080
X31115Y5080
X1905Y27305
X1905Y29210
X5715Y59055
X5715Y60960
X5715Y71755
X5715Y73660
X5715Y46355
X5715Y48260
X28892Y56832
X24422Y69533
X16510Y1905
X18415Y1905
X20320Y1905
X10160Y31115
X27305Y26352
X46355Y76518
X73660Y76518
X73025Y34401
X49530Y34401
X61277Y34401
X32067Y52070
X41910Y53657
X48577Y19685
X57467Y22542
X69215Y22542
X10478Y61277
X10478Y48577
X23812Y78105
X29210Y74613
X58420Y45085
X67310Y42545
X75565Y40005
X77470Y10160
X57150Y18415
X41275Y17780
X41275Y37465
X47625Y51435
X52705Y53975
X57785Y53975
X12700Y18415
X60960Y14605
X70485Y13970
X68580Y19050
X71120Y5080
X56515Y34925
X62865Y38100
X68580Y34608
X62230Y26352
X67945Y25400
X45720Y34290
X45720Y38735
X50800Y37465
X51435Y46990
X51435Y64770
X56515Y67310
X76835Y50800
X73025Y53975
X81280Y56515
X81280Y62865
X74295Y63500
X78105Y78740
X55245Y83185
X29210Y83185
X16510Y84455
X19368Y68580
X19685Y56515
X16828Y50800
X16828Y63500
X16828Y76200
X14605Y25400
X22860Y13970
X8890Y13970
X84455Y27305
X44450Y23495
X32702Y29845
X35243Y18415
X14266Y10275
X23495Y40031
X17463Y27331
X33131Y35560
X33131Y33973
X32496Y32385
X32385Y34845
X32359Y72708
X45059Y66675
X36830Y82343
X38418Y82343
X40005Y81708
X37545Y81598
X59664Y72708
X72364Y66675
X64135Y82343
X65723Y82343
X67310Y81708
X64850Y81598
X24422Y44132
X6642Y46990
X6642Y59690
X6642Y72390
X12700Y69850
X12700Y82233
X12700Y56832
X24130Y56832
X28601Y69533
X16171Y10275
X25717Y23469
X22542Y19024
X10160Y23469
X48921Y74930
X53366Y71755
X48921Y59372
X76226Y74930
X80671Y71755
X76226Y59372
X55880Y27262
X65405Y27262
X65405Y24173
X64452Y34401
X44132Y27262
X53657Y27262
X52705Y34401
X67628Y27262
X77153Y27262
X76200Y34401
X77153Y24173
X53657Y24173
X46355Y55880
X73660Y55880
X6667Y26035
X51435Y40323
X50482Y40958
X51435Y41593
X30480Y22860
X41275Y29845
X53657Y40958
X50482Y42545
X18098Y10478
X22225Y25717
X24847Y33020
X22225Y27305
X5715Y33020
X5715Y34290
X13970Y31115
X12700Y31115
X39370Y74060
X45085Y71438
X66675Y74060
X72390Y71438
X46672Y71438
X41272Y61500
X41275Y62865
X38735Y54610
X40005Y56515
X44450Y74930
X73978Y71438
X71755Y74930
X67310Y56515
X66040Y54610
X68580Y61595
X68580Y62865
X60325Y21590
X60325Y19685
X48577Y21590
X51117Y20638
X72073Y19685
X72073Y21590
X59055Y21590
X59055Y19685
X70803Y21590
X70803Y19685
X33973Y12589
X69215Y53657
X12382Y10478
X21273Y40031
X25717Y40031
X23495Y23469
X20320Y19024
X17698Y35938
X19685Y23469
X17463Y23469
X20320Y31115
X22225Y31115
X21273Y31750
X22225Y32385
X20320Y32385
X12065Y27759
X12382Y40983
X14605Y40983
X10160Y40031
X12382Y23469
X7937Y23469
X32385Y25400
X32385Y26670
X7937Y40031
X2197Y34290
X2197Y30480
X2197Y31750
X2223Y33020
X28892Y30845
X32359Y70485
X32359Y74930
X48921Y72708
X53366Y69533
X36452Y66910
X48921Y68898
X36830Y5080
X48921Y66675
X41275Y69533
X41275Y71438
X40640Y70485
X40005Y71438
X40005Y69533
X44631Y61277
X31407Y61595
X31407Y63817
X32359Y59372
X48921Y61595
X48921Y57150
X46990Y81598
X45720Y81598
X32359Y57150
X38735Y50774
X42545Y50774
X41275Y50774
X40005Y50800
X41545Y78105
X59664Y70485
X59664Y74930
X76226Y72708
X80671Y69533
X63757Y66910
X76226Y68898
X76226Y66675
X68580Y69533
X68580Y71438
X67945Y70485
X67310Y71438
X67310Y69533
X71936Y61277
X58712Y61595
X58712Y63817
X76226Y61595
X76226Y57150
X74295Y81598
X73025Y81598
X59664Y57150
X66040Y50774
X69850Y50774
X68580Y50774
X67310Y50800
X68850Y78105
X28283Y44132
X9868Y46990
X8255Y52873
X9868Y59690
X8255Y65573
X9868Y72390
X8255Y78273
X57150Y30523
X55880Y30523
X65405Y30523
X65405Y20912
X61595Y21496
X61595Y29702
X64135Y20912
X64135Y30523
X51117Y33698
X45402Y30523
X44132Y30523
X53657Y30523
X53657Y20912
X49847Y21496
X49847Y29702
X52387Y20912
X25717Y27940
M30