M48
;GenerationSoftware,Autodesk,EAGLE,9.6.2*%
;CreationDate,2021-07-26T23:18:46Z*%
FMAT,2
ICI,OFF
METRIC,TZ,000.000
T11C0.200
T10C0.350
T9C0.510
T8C0.550
T7C1.016
T6C1.080
T5C2.500
T4C3.000
T3C3.200
T2C4.000
T1C15.700
%
G90
M71
T1
X45583Y67000
X45583Y24000
T2
X6500Y6500
X84500Y6500
X84500Y84500
X6500Y84500
T3
X14750Y76245
X76245Y76245
X76245Y14750
X14750Y14750
T4
X51500Y14000
X51500Y34000
X51500Y57000
X51500Y77000
T5
X27940Y5715
X63500Y5715
X84455Y59372
X84455Y77153
T6
X88265Y33655
X88265Y38735
X88265Y36195
X88265Y31115
X88265Y28575
X88265Y26035
X88265Y23495
X88265Y20955
X88265Y18415
X88265Y15875
T7
X83185Y73343
X14605Y62230
X74054Y3454
X74054Y7976
X67551Y3454
X67551Y7976
X57150Y4445
X57150Y6985
X59690Y4445
X17145Y62230
X70803Y84455
X70803Y86995
X59690Y6985
X85725Y63182
X83185Y63182
X79375Y39053
X79375Y41593
X79375Y44132
X79375Y46672
X79375Y49212
X79375Y51752
X85725Y65723
X83185Y65723
X85725Y68263
X83185Y68263
X85725Y70803
X83185Y70803
X85725Y73343
X22320Y75890
X22320Y73350
X22320Y70810
X22320Y68270
X22320Y65730
X22320Y63190
X22320Y60650
X22320Y58110
X22320Y32890
X22320Y30350
X22320Y27810
X22320Y25270
X22320Y22730
X22320Y20190
X22320Y17650
X22320Y15110
X17145Y69850
X14605Y69850
X12065Y69850
X31750Y4445
X31750Y6985
X34290Y4445
X34290Y6985
X36830Y4445
X36830Y6985
X39370Y4445
X39370Y6985
X41910Y4445
X41910Y6985
X44450Y4445
X44450Y6985
X46990Y4445
X46990Y6985
X49530Y4445
X49530Y6985
X52070Y4445
X52070Y6985
X54610Y4445
X54610Y6985
T8
X7620Y76200
X7620Y74950
X7620Y73660
T9
X18098Y10478
X42228Y46355
X19685Y47942
X64135Y56515
X58420Y77470
X24130Y46990
X11112Y11112
X10795Y19050
X6350Y14605
X19685Y46037
X19685Y44132
X12700Y41275
X8890Y41275
X8890Y33020
X56515Y60642
X57467Y58737
X12700Y33020
X8890Y49530
X12700Y49530
T10
X37783Y46037
X71438Y44450
X83074Y36195
X58737Y5715
X77153Y47942
X86043Y53022
X10795Y60642
X1905Y1905
X3810Y1905
X5715Y1905
X7620Y1905
X9525Y1905
X11430Y1905
X13335Y1905
X15240Y1905
X17145Y1905
X19050Y1905
X34290Y1905
X20955Y1905
X22860Y1905
X26670Y1905
X28575Y1905
X30480Y1905
X32385Y1905
X36195Y1905
X38100Y1905
X40005Y1905
X41910Y1905
X43815Y1905
X45720Y1905
X47625Y1905
X49530Y1905
X51435Y1905
X53340Y1905
X55245Y1905
X57150Y1905
X59055Y1905
X60960Y1905
X62865Y1905
X64770Y1905
X66675Y1905
X68580Y1905
X70485Y1905
X72390Y1905
X74295Y1905
X76200Y1905
X78105Y1905
X80010Y1905
X81915Y1905
X83820Y1905
X85725Y1905
X87630Y1905
X89217Y1905
X89217Y3810
X89217Y5715
X89217Y7620
X89217Y9525
X89217Y11430
X89217Y13335
X89217Y41275
X89217Y43180
X89217Y45085
X89217Y56515
X89217Y58420
X89217Y60325
X89217Y62230
X89217Y64135
X89217Y66040
X89217Y67945
X89217Y69850
X89217Y71755
X89217Y73660
X89217Y75565
X89217Y77470
X89217Y79375
X89217Y81280
X89217Y83185
X89217Y85090
X89217Y86995
X89217Y88900
X87947Y89217
X86043Y89217
X84138Y89217
X82233Y89217
X80328Y89217
X78423Y89217
X76518Y89217
X74613Y89217
X72708Y89217
X70803Y89217
X68898Y89217
X66993Y89217
X65087Y89217
X63182Y89217
X61277Y89217
X59372Y89217
X57467Y89217
X55562Y89217
X53657Y89217
X51752Y89217
X49847Y89217
X47942Y89217
X46037Y89217
X44132Y89217
X42228Y89217
X40323Y89217
X38418Y89217
X36513Y89217
X34608Y89217
X32702Y89217
X30797Y89217
X29527Y89217
X21590Y85408
X19685Y85408
X17780Y85408
X15875Y85408
X13970Y85408
X12700Y85725
X11747Y86678
X11430Y87947
X11430Y89217
X9843Y89217
X7937Y89217
X6032Y89217
X4128Y89217
X2223Y89217
X1587Y87313
X1587Y85408
X1587Y83503
X1587Y81598
X1587Y79693
X1587Y77788
X1587Y75883
X1587Y73978
X1587Y72073
X1587Y70168
X1587Y68263
X1587Y66358
X1905Y3810
X1905Y5715
X1905Y7620
X1905Y9525
X1905Y11430
X1905Y13335
X1905Y15240
X1905Y17145
X1905Y19050
X1905Y20955
X1905Y22860
X1905Y24765
X1905Y26670
X1905Y28575
X1905Y30480
X1905Y32385
X1905Y38735
X65405Y71644
X1905Y46990
X1905Y48895
X1905Y55245
X19368Y3810
X42545Y78740
X67199Y57785
X75041Y84455
X75041Y86995
X35878Y72073
X25717Y69533
X9843Y79693
X27940Y82550
X11747Y83503
X28257Y21273
X28257Y27622
X25082Y30797
X34608Y33338
X39053Y13652
X44132Y13652
X46037Y34608
X25717Y12382
X65087Y19368
X66993Y14922
X70803Y12382
X73978Y23177
X82868Y14287
X78423Y4763
X60960Y16828
X83503Y44450
X76835Y58420
X75565Y68898
X78423Y82868
X52070Y86360
X38418Y80328
X59372Y68263
X44132Y56832
X51435Y45085
X65405Y37783
X69533Y31115
X63817Y30162
X61277Y26352
X74295Y26352
X27622Y9208
X8890Y24765
X5080Y24130
X5080Y25400
X15240Y26670
X9843Y29845
X15240Y22860
X67310Y66993
X19685Y8890
X12700Y54610
X17780Y46355
X17780Y49847
X17780Y52387
X12700Y38100
X12700Y46355
X14605Y38100
X14605Y46355
X14605Y54610
X79375Y55118
X85090Y55118
X72073Y47307
X57467Y25082
X23495Y85408
X25400Y85408
X27305Y85408
X29527Y87947
X28575Y86043
X29210Y86995
X76200Y29845
X77470Y27095
X45720Y48260
X65405Y35243
X64452Y33338
X48260Y40005
X45720Y40640
X63500Y34290
X81280Y68236
X70747Y41537
X34925Y49530
X18098Y35878
X11747Y23177
X10478Y26352
X13335Y29210
X10379Y31405
X11747Y31115
X72390Y33338
X71656Y31764
X70485Y36830
X66993Y29210
X61912Y34608
X72390Y35560
X75248Y47942
X88900Y46990
X46355Y78740
X40640Y39370
X40666Y52070
X39053Y38319
X39370Y53022
X34290Y50826
X32385Y50800
X57785Y30480
X50800Y43180
X57785Y28575
X50852Y41009
X57785Y26670
X70803Y22860
X64135Y10160
X69850Y23812
X69215Y22542
X71438Y25400
X71438Y24104
X76835Y32385
X64135Y24130
X64452Y25717
X68580Y43180
X66675Y53975
X58737Y33020
X76200Y46990
X81280Y65723
X66675Y75565
X66675Y73978
X66675Y72390
X68580Y71755
X70485Y72390
X70168Y74295
X70485Y75565
X66675Y80328
X70168Y80010
X33973Y45402
X34608Y42545
X42644Y41936
X54610Y48577
X73343Y56197
X42326Y40640
X48895Y45720
X55880Y48260
X76200Y55245
X37684Y35560
X75565Y50482
X58420Y53975
X46355Y53975
X26670Y58102
X44767Y79693
X69850Y82649
X63182Y22225
X60325Y20320
X33655Y12039
X62547Y35878
X59690Y64135
X69961Y57785
X68580Y62230
X37465Y50165
X26165Y37465
X1587Y36830
X1587Y53340
X67335Y23177
X23809Y6985
X68110Y47812
X31620Y37465
X27435Y51435
X55131Y41148
X11760Y40323
X11773Y56832
X51959Y84455
X9425Y19048
X60642Y86678
X18089Y41275
X15557Y84138
X5715Y60325
X59029Y60960
X59029Y58420
X65405Y67056
X63182Y84455
X66040Y84455
X11773Y48577
X1562Y45085
X71644Y46037
X66993Y65723
X22887Y51117
X22887Y39053
X8864Y39053
X1587Y34608
X8864Y55562
X1587Y51117
X23469Y41275
X34316Y41275
X23469Y48895
X66015Y23177
X80328Y35243
X75248Y28892
X5372Y19050
X23521Y4763
X17142Y31115
X55131Y46990
X57359Y40792
X61360Y42075
X60325Y48260
X58737Y47942
X57467Y47942
X57150Y46355
X1905Y40640
X57467Y44450
X59055Y44767
X60642Y44450
X62230Y46355
X66040Y48101
X33020Y43815
X34179Y75883
X75565Y35878
X75565Y34290
X71094Y51752
X72075Y50563
X29210Y12039
X86043Y27305
X54884Y84888
X62162Y86721
X67988Y83185
X61595Y71644
X62865Y71644
X64135Y71644
X51959Y81598
X68056Y85725
X37576Y42545
X86995Y11319
X78629Y70803
X61595Y81915
X62865Y81915
X61595Y79375
X62230Y80645
X62865Y79375
X51959Y82868
X21247Y43498
X77470Y22984
X22022Y84116
X22022Y81893
X61595Y75565
X24130Y33655
X53657Y30162
X53657Y18098
X20955Y51546
X82868Y24447
X33655Y15901
X6667Y70803
X66993Y64270
X71438Y64270
X69465Y67310
X62230Y65731
X62230Y63500
X67199Y60960
X67199Y59690
X36830Y53975
X31750Y49212
X60960Y9525
X60642Y23177
X8406Y44132
X8404Y52070
X8864Y47307
X8404Y35560
X1562Y42863
X11430Y63817
X9843Y62547
X20003Y59690
X47625Y41593
X67945Y41910
X75248Y43180
X71438Y38100
X62230Y32385
X42545Y8890
X47942Y46672
T11
X65885Y43180
M30