M48
;GenerationSoftware,Autodesk,EAGLE,9.6.2*%
;CreationDate,2021-05-15T18:33:00Z*%
FMAT,2
ICI,OFF
METRIC,TZ,000.000
T2C0.350
T1C1.016
%
G90
M71
T1
X15240Y7620
X15240Y5080
X15240Y2540
X15240Y0
X15240Y-2540
X15240Y-5080
X15240Y-7620
X0Y7620
X0Y5080
X0Y2540
X0Y0
X0Y-2540
X0Y-5080
X0Y-7620
T2
X5202Y250
X8890Y-7311
X6350Y-7311
X7620Y-2050
X5080Y7620
X10160Y5080
X12700Y3810
X12065Y1270
X13335Y-3810
X10160Y-3175
X13335Y-6350
X3810Y-1270
X13335Y-1270
X7620Y6985
M30