M48
;GenerationSoftware,Autodesk,EAGLE,9.6.2*%
;CreationDate,2021-07-27T01:58:42Z*%
FMAT,2
ICI,OFF
METRIC,TZ,000.000
T7C0.350
T6C0.510
T5C0.550
T4C0.600
T3C1.016
T2C2.400
T1C4.000
%
G90
M71
T1
X6500Y6500
X84500Y6500
X84500Y84500
X6500Y84500
T2
X81325Y60325
X54160Y50500
X51850Y6500
X39150Y6500
X39150Y84500
X51850Y84500
X84500Y51850
X84500Y39150
X6500Y39150
X6500Y51850
X45500Y35500
X81325Y78105
X36840Y50500
T3
X42960Y5230
X82595Y74295
X5230Y48040
X7770Y48040
X12700Y72073
X15240Y72073
X80055Y74295
X80055Y64135
X82595Y64135
X80055Y66675
X82595Y66675
X80055Y69215
X82595Y69215
X80055Y71755
X82595Y71755
X48040Y5230
X48040Y7770
X45500Y5230
X45500Y7770
X42960Y7770
X42960Y85770
X42960Y83230
X45500Y85770
X45500Y83230
X48040Y85770
X48040Y83230
X85770Y48040
X83230Y48040
X85770Y45500
X83230Y45500
X85770Y42960
X83230Y42960
X5230Y42960
X7770Y42960
X5230Y45500
X7770Y45500
T4
X48800Y50980
X42200Y50980
X48600Y39900
X39100Y45620
X51900Y45620
X42400Y39900
T5
X8255Y76815
X8255Y75565
T6
X59055Y65723
X73025Y66993
X5080Y72073
X63817Y81915
X63817Y57150
X63817Y48895
X63817Y73660
X65723Y40323
X56515Y76200
X55562Y78740
X65723Y36830
X65723Y29845
X24765Y54292
X49212Y23812
X24765Y41593
X50165Y64770
X56515Y67310
X54610Y65723
X42863Y23812
X36195Y23812
X57785Y74613
X24765Y47942
T7
X73386Y62547
X73343Y63817
X66632Y54292
X60282Y54292
X60282Y51752
X73386Y54292
X73343Y55562
X66675Y47625
X66675Y46355
X64452Y84773
X64452Y51752
X64452Y76518
X64452Y59979
X63817Y61277
X63817Y53022
X63817Y86043
X72708Y77153
X72708Y52387
X60282Y79058
X73386Y72073
X64452Y68263
X47351Y62547
X47351Y60960
X43454Y64135
X47476Y58420
X34651Y62547
X34016Y60960
X30754Y64135
X34776Y58420
X41001Y62547
X41001Y60960
X37104Y64135
X41126Y58420
X54336Y19368
X53701Y17780
X50439Y20955
X54461Y15240
X47986Y19368
X47351Y17780
X44089Y20955
X48111Y15240
X41636Y19368
X41001Y17780
X37739Y20955
X41761Y15240
X36787Y72390
X37422Y73978
X40683Y70803
X36662Y76518
X70803Y44176
X72390Y43541
X69215Y40279
X74930Y44301
X43137Y72390
X43772Y73978
X47033Y70803
X43012Y76518
X49487Y72390
X50122Y73978
X53383Y70803
X49362Y76518
X70803Y37826
X72390Y37191
X69215Y33929
X74930Y37951
X70803Y31476
X72390Y30841
X69215Y27579
X74930Y31601
X20003Y49169
X18415Y49804
X21590Y53066
X15875Y49044
X20003Y42819
X18415Y43454
X21590Y46716
X15875Y42694
X20003Y36469
X18415Y37104
X21590Y40366
X15875Y36344
X72708Y68898
X75565Y60642
X75565Y77470
X75248Y74613
X75565Y69215
X75248Y52387
X15240Y78105
X88582Y71755
X56197Y22860
X66468Y45085
X88376Y74295
X88376Y73025
X88376Y70485
X88376Y69215
X88376Y67945
X61912Y24876
X60642Y23812
X54927Y23134
X54182Y87947
X54182Y89217
X79693Y57785
X77788Y54292
X77153Y63182
X77470Y69533
X84773Y72390
X84773Y71120
X84455Y69533
X85090Y67945
X83185Y62230
X66675Y28892
X66675Y33338
X20003Y40966
X66675Y38418
X36830Y18415
X43498Y18415
X49847Y18415
X57150Y73343
X40640Y65405
X34290Y65405
X40958Y56197
X40958Y54292
X52070Y65723
X55562Y66675
X41275Y73343
X47625Y73343
X57150Y78740
X72390Y39688
X71755Y33338
X71755Y26987
X19050Y53657
X19050Y47307
X19050Y40958
X30162Y61595
X36513Y61595
X42863Y61912
X73978Y68263
X75248Y68263
X73978Y59372
X75248Y59372
X75248Y51117
X73978Y51117
X73978Y75883
X75248Y75883
X76200Y64135
X74613Y66675
X77153Y67945
X73660Y57467
X72763Y82235
X74930Y49212
X76200Y49212
X73343Y73978
X76835Y73978
X61912Y82233
X58635Y83546
X61595Y73660
X59690Y74930
X59372Y79375
X57150Y87947
X63817Y77788
X85614Y74295
X73721Y83500
X77788Y60325
X73330Y58735
X77543Y50800
X73025Y50480
X77153Y75248
X73330Y75245
X73660Y65405
X60723Y22845
X59372Y25717
X30797Y53022
X22542Y68898
X30162Y75248
X16828Y82233
X2857Y79693
X14287Y87947
X26352Y84773
X35243Y88582
X78423Y88582
X87313Y79693
X84138Y57467
X88582Y49847
X88582Y39688
X88582Y29527
X88582Y16192
X79058Y2857
X73343Y2857
X66358Y2857
X60007Y2857
X53022Y2857
X46672Y2857
X37783Y2857
X29527Y2857
X21907Y2857
X13017Y2857
X2857Y11112
X2857Y18098
X2857Y25082
X2857Y32067
X2857Y39688
X2857Y47942
X2857Y56197
X10478Y56832
X14922Y60642
X15557Y66993
X2857Y72073
X20003Y75248
X22542Y60007
X27622Y45402
X25082Y33973
X70168Y63817
X34608Y9843
X20638Y9843
X9843Y16828
X11112Y24447
X35243Y42863
X38418Y28892
X47307Y28892
X63182Y30797
X65723Y24447
X76518Y23177
X63182Y7302
X73978Y8573
X47307Y47307
X62591Y56832
X62547Y77744
X62504Y86043
X62591Y61277
X62591Y53022
X70168Y88582
X62591Y81598
X70168Y55562
X70168Y80328
X58737Y61277
X58737Y53022
X58737Y86043
X63500Y46355
X59055Y77788
X62547Y73343
X62547Y65087
X62547Y69533
X70124Y72073
X59012Y69533
X42854Y63182
X43498Y65405
X30154Y62547
X30797Y65405
X36504Y62547
X37148Y65405
X49839Y19368
X50482Y22225
X43489Y19368
X44132Y22225
X37139Y19368
X37783Y22225
X41283Y72390
X40640Y69533
X70803Y39679
X66675Y35243
X67945Y40323
X47633Y72390
X46990Y69533
X53983Y72390
X53340Y69533
X70803Y33329
X67945Y33973
X70803Y26979
X67945Y27622
X20003Y53666
X22860Y53022
X20003Y47316
X22860Y46672
X22860Y40323
X13335Y78131
X56197Y24130
X54927Y26352
X53366Y56832
X49538Y59372
X53738Y58737
X50165Y61595
X66632Y70803
X59964Y70803
X60282Y63817
X66718Y63817
X59964Y68263
X73386Y70803
X66718Y79058
X59964Y72073
X66632Y72073
X60642Y76561
X73386Y79058
X73343Y80328
X72565Y84773
X66718Y87313
X60051Y87313
X60282Y80328
X66718Y80328
X60051Y84773
X73386Y87313
X73343Y88582
X72565Y60642
X66632Y62547
X60282Y62547
X60282Y55562
X66718Y55562
X60007Y60051
X11747Y33338
M30